<mxfile host="app.diagrams.net" agent="Mozilla/5.0 (Windows NT 10.0; Win64; x64) AppleWebKit/537.36 (KHTML, like Gecko) Chrome/131.0.0.0 Safari/537.36" version="24.9.1">
  <diagram name="Page-1" id="5I0gq4m4eIk-njCCJgi4">
    <mxGraphModel dx="1590" dy="997" grid="1" gridSize="10" guides="1" tooltips="1" connect="1" arrows="1" fold="1" page="1" pageScale="1" pageWidth="850" pageHeight="1100" math="0" shadow="0">
      <root>
        <mxCell id="0" />
        <mxCell id="1" parent="0" />
        <mxCell id="QxzIvFPPsnq7uUaEhteo-12" value="" style="edgeStyle=orthogonalEdgeStyle;rounded=0;orthogonalLoop=1;jettySize=auto;html=1;" parent="1" source="QxzIvFPPsnq7uUaEhteo-4" target="QxzIvFPPsnq7uUaEhteo-10" edge="1">
          <mxGeometry relative="1" as="geometry" />
        </mxCell>
        <mxCell id="QxzIvFPPsnq7uUaEhteo-20" value="" style="edgeStyle=orthogonalEdgeStyle;rounded=0;orthogonalLoop=1;jettySize=auto;html=1;" parent="1" source="QxzIvFPPsnq7uUaEhteo-4" target="QxzIvFPPsnq7uUaEhteo-19" edge="1">
          <mxGeometry relative="1" as="geometry" />
        </mxCell>
        <mxCell id="QxzIvFPPsnq7uUaEhteo-4" value="Project" style="shape=ext;margin=3;double=1;whiteSpace=wrap;html=1;align=center;" parent="1" vertex="1">
          <mxGeometry x="120" y="555" width="100" height="40" as="geometry" />
        </mxCell>
        <mxCell id="QxzIvFPPsnq7uUaEhteo-11" value="" style="edgeStyle=orthogonalEdgeStyle;rounded=0;orthogonalLoop=1;jettySize=auto;html=1;" parent="1" source="QxzIvFPPsnq7uUaEhteo-5" target="QxzIvFPPsnq7uUaEhteo-10" edge="1">
          <mxGeometry relative="1" as="geometry" />
        </mxCell>
        <mxCell id="QxzIvFPPsnq7uUaEhteo-26" value="" style="edgeStyle=orthogonalEdgeStyle;rounded=0;orthogonalLoop=1;jettySize=auto;html=1;" parent="1" source="QxzIvFPPsnq7uUaEhteo-5" target="QxzIvFPPsnq7uUaEhteo-24" edge="1">
          <mxGeometry relative="1" as="geometry" />
        </mxCell>
        <mxCell id="QxzIvFPPsnq7uUaEhteo-32" value="" style="edgeStyle=orthogonalEdgeStyle;rounded=0;orthogonalLoop=1;jettySize=auto;html=1;" parent="1" source="QxzIvFPPsnq7uUaEhteo-5" target="QxzIvFPPsnq7uUaEhteo-31" edge="1">
          <mxGeometry relative="1" as="geometry" />
        </mxCell>
        <mxCell id="QxzIvFPPsnq7uUaEhteo-39" style="edgeStyle=orthogonalEdgeStyle;rounded=0;orthogonalLoop=1;jettySize=auto;html=1;entryX=0.5;entryY=1;entryDx=0;entryDy=0;" parent="1" source="QxzIvFPPsnq7uUaEhteo-5" target="QxzIvFPPsnq7uUaEhteo-37" edge="1">
          <mxGeometry relative="1" as="geometry" />
        </mxCell>
        <mxCell id="QxzIvFPPsnq7uUaEhteo-49" value="" style="edgeStyle=orthogonalEdgeStyle;rounded=0;orthogonalLoop=1;jettySize=auto;html=1;" parent="1" source="QxzIvFPPsnq7uUaEhteo-5" target="QxzIvFPPsnq7uUaEhteo-48" edge="1">
          <mxGeometry relative="1" as="geometry" />
        </mxCell>
        <mxCell id="QxzIvFPPsnq7uUaEhteo-5" value="Workspace" style="rounded=1;arcSize=10;whiteSpace=wrap;html=1;align=center;" parent="1" vertex="1">
          <mxGeometry x="340" y="445" width="100" height="40" as="geometry" />
        </mxCell>
        <mxCell id="QxzIvFPPsnq7uUaEhteo-21" value="" style="edgeStyle=orthogonalEdgeStyle;rounded=0;orthogonalLoop=1;jettySize=auto;html=1;exitX=0;exitY=0.5;exitDx=0;exitDy=0;entryX=1;entryY=0.5;entryDx=0;entryDy=0;" parent="1" target="QxzIvFPPsnq7uUaEhteo-19" edge="1">
          <mxGeometry relative="1" as="geometry">
            <Array as="points">
              <mxPoint x="250" y="710" />
              <mxPoint x="250" y="675" />
            </Array>
            <mxPoint x="339.94" y="710.01" as="sourcePoint" />
            <mxPoint x="169.9988235294117" y="699.9364705882354" as="targetPoint" />
          </mxGeometry>
        </mxCell>
        <mxCell id="QxzIvFPPsnq7uUaEhteo-25" value="" style="edgeStyle=orthogonalEdgeStyle;rounded=0;orthogonalLoop=1;jettySize=auto;html=1;" parent="1" source="QxzIvFPPsnq7uUaEhteo-6" target="QxzIvFPPsnq7uUaEhteo-24" edge="1">
          <mxGeometry relative="1" as="geometry" />
        </mxCell>
        <mxCell id="16yrcvZxFUf8P6aVs9JN-54" style="edgeStyle=orthogonalEdgeStyle;rounded=0;orthogonalLoop=1;jettySize=auto;html=1;exitX=1;exitY=0.5;exitDx=0;exitDy=0;" parent="1" source="QxzIvFPPsnq7uUaEhteo-6" target="16yrcvZxFUf8P6aVs9JN-53" edge="1">
          <mxGeometry relative="1" as="geometry" />
        </mxCell>
        <mxCell id="QxzIvFPPsnq7uUaEhteo-6" value="File" style="shape=ext;margin=3;double=1;whiteSpace=wrap;html=1;align=center;" parent="1" vertex="1">
          <mxGeometry x="340" y="690" width="100" height="40" as="geometry" />
        </mxCell>
        <mxCell id="QxzIvFPPsnq7uUaEhteo-38" value="" style="edgeStyle=orthogonalEdgeStyle;rounded=0;orthogonalLoop=1;jettySize=auto;html=1;" parent="1" source="QxzIvFPPsnq7uUaEhteo-7" target="QxzIvFPPsnq7uUaEhteo-37" edge="1">
          <mxGeometry relative="1" as="geometry" />
        </mxCell>
        <mxCell id="QxzIvFPPsnq7uUaEhteo-44" value="" style="edgeStyle=orthogonalEdgeStyle;rounded=0;orthogonalLoop=1;jettySize=auto;html=1;" parent="1" source="QxzIvFPPsnq7uUaEhteo-7" target="QxzIvFPPsnq7uUaEhteo-43" edge="1">
          <mxGeometry relative="1" as="geometry" />
        </mxCell>
        <mxCell id="QxzIvFPPsnq7uUaEhteo-7" value="Extension" style="shape=ext;margin=3;double=1;whiteSpace=wrap;html=1;align=center;" parent="1" vertex="1">
          <mxGeometry x="525" y="190" width="100" height="40" as="geometry" />
        </mxCell>
        <mxCell id="QxzIvFPPsnq7uUaEhteo-33" style="edgeStyle=orthogonalEdgeStyle;rounded=0;orthogonalLoop=1;jettySize=auto;html=1;entryX=0.5;entryY=0;entryDx=0;entryDy=0;" parent="1" source="QxzIvFPPsnq7uUaEhteo-8" target="QxzIvFPPsnq7uUaEhteo-31" edge="1">
          <mxGeometry relative="1" as="geometry" />
        </mxCell>
        <mxCell id="QxzIvFPPsnq7uUaEhteo-8" value="Tool" style="rounded=1;arcSize=10;whiteSpace=wrap;html=1;align=center;" parent="1" vertex="1">
          <mxGeometry x="200" y="190" width="100" height="40" as="geometry" />
        </mxCell>
        <mxCell id="QxzIvFPPsnq7uUaEhteo-10" value="has" style="rhombus;whiteSpace=wrap;html=1;rounded=1;arcSize=10;" parent="1" vertex="1">
          <mxGeometry x="150" y="440" width="40" height="50" as="geometry" />
        </mxCell>
        <mxCell id="QxzIvFPPsnq7uUaEhteo-14" value="1" style="text;strokeColor=none;fillColor=none;spacingLeft=4;spacingRight=4;overflow=hidden;rotatable=0;points=[[0,0.5],[1,0.5]];portConstraint=eastwest;fontSize=12;whiteSpace=wrap;html=1;" parent="1" vertex="1">
          <mxGeometry x="140" y="495" width="40" height="30" as="geometry" />
        </mxCell>
        <mxCell id="QxzIvFPPsnq7uUaEhteo-15" value="m" style="text;html=1;align=center;verticalAlign=middle;resizable=0;points=[];autosize=1;strokeColor=none;fillColor=none;" parent="1" vertex="1">
          <mxGeometry x="310" y="430" width="30" height="30" as="geometry" />
        </mxCell>
        <mxCell id="QxzIvFPPsnq7uUaEhteo-19" value="has" style="rhombus;whiteSpace=wrap;html=1;" parent="1" vertex="1">
          <mxGeometry x="150" y="650" width="40" height="50" as="geometry" />
        </mxCell>
        <mxCell id="QxzIvFPPsnq7uUaEhteo-22" value="m" style="text;html=1;align=center;verticalAlign=middle;resizable=0;points=[];autosize=1;strokeColor=none;fillColor=none;" parent="1" vertex="1">
          <mxGeometry x="310" y="680" width="30" height="30" as="geometry" />
        </mxCell>
        <mxCell id="QxzIvFPPsnq7uUaEhteo-23" value="1" style="text;strokeColor=none;fillColor=none;spacingLeft=4;spacingRight=4;overflow=hidden;rotatable=0;points=[[0,0.5],[1,0.5]];portConstraint=eastwest;fontSize=12;whiteSpace=wrap;html=1;" parent="1" vertex="1">
          <mxGeometry x="140" y="610" width="40" height="30" as="geometry" />
        </mxCell>
        <mxCell id="QxzIvFPPsnq7uUaEhteo-24" value="has" style="shape=associativeEntity;whiteSpace=wrap;html=1;align=center;" parent="1" vertex="1">
          <mxGeometry x="370" y="545" width="40" height="40" as="geometry" />
        </mxCell>
        <mxCell id="QxzIvFPPsnq7uUaEhteo-28" value="n" style="text;html=1;align=center;verticalAlign=middle;resizable=0;points=[];autosize=1;strokeColor=none;fillColor=none;" parent="1" vertex="1">
          <mxGeometry x="390" y="660" width="30" height="30" as="geometry" />
        </mxCell>
        <mxCell id="QxzIvFPPsnq7uUaEhteo-31" value="has" style="shape=associativeEntity;whiteSpace=wrap;html=1;align=center;" parent="1" vertex="1">
          <mxGeometry x="310" y="250" width="35" height="40" as="geometry" />
        </mxCell>
        <mxCell id="QxzIvFPPsnq7uUaEhteo-34" value="m" style="text;html=1;align=center;verticalAlign=middle;resizable=0;points=[];autosize=1;strokeColor=none;fillColor=none;" parent="1" vertex="1">
          <mxGeometry x="300" y="180" width="30" height="30" as="geometry" />
        </mxCell>
        <mxCell id="QxzIvFPPsnq7uUaEhteo-35" value="n" style="text;html=1;align=center;verticalAlign=middle;resizable=0;points=[];autosize=1;strokeColor=none;fillColor=none;" parent="1" vertex="1">
          <mxGeometry x="330" y="320" width="30" height="30" as="geometry" />
        </mxCell>
        <mxCell id="QxzIvFPPsnq7uUaEhteo-37" value="has" style="shape=associativeEntity;whiteSpace=wrap;html=1;align=center;" parent="1" vertex="1">
          <mxGeometry x="440" y="250" width="35" height="40" as="geometry" />
        </mxCell>
        <mxCell id="QxzIvFPPsnq7uUaEhteo-40" value="n" style="text;html=1;align=center;verticalAlign=middle;resizable=0;points=[];autosize=1;strokeColor=none;fillColor=none;" parent="1" vertex="1">
          <mxGeometry x="422.5" y="320" width="30" height="30" as="geometry" />
        </mxCell>
        <mxCell id="QxzIvFPPsnq7uUaEhteo-41" value="m" style="text;html=1;align=center;verticalAlign=middle;resizable=0;points=[];autosize=1;strokeColor=none;fillColor=none;" parent="1" vertex="1">
          <mxGeometry x="480" y="180" width="30" height="30" as="geometry" />
        </mxCell>
        <mxCell id="QxzIvFPPsnq7uUaEhteo-45" style="edgeStyle=orthogonalEdgeStyle;rounded=0;orthogonalLoop=1;jettySize=auto;html=1;" parent="1" source="QxzIvFPPsnq7uUaEhteo-42" target="QxzIvFPPsnq7uUaEhteo-43" edge="1">
          <mxGeometry relative="1" as="geometry">
            <Array as="points">
              <mxPoint x="780" y="210" />
            </Array>
          </mxGeometry>
        </mxCell>
        <mxCell id="16yrcvZxFUf8P6aVs9JN-19" value="" style="edgeStyle=orthogonalEdgeStyle;rounded=0;orthogonalLoop=1;jettySize=auto;html=1;" parent="1" source="QxzIvFPPsnq7uUaEhteo-42" target="16yrcvZxFUf8P6aVs9JN-18" edge="1">
          <mxGeometry relative="1" as="geometry" />
        </mxCell>
        <mxCell id="QxzIvFPPsnq7uUaEhteo-42" value="User" style="whiteSpace=wrap;html=1;align=center;" parent="1" vertex="1">
          <mxGeometry x="720" y="375" width="100" height="40" as="geometry" />
        </mxCell>
        <mxCell id="QxzIvFPPsnq7uUaEhteo-43" value="has" style="shape=associativeEntity;whiteSpace=wrap;html=1;align=center;" parent="1" vertex="1">
          <mxGeometry x="700" y="190" width="35" height="40" as="geometry" />
        </mxCell>
        <mxCell id="QxzIvFPPsnq7uUaEhteo-46" value="m" style="text;html=1;align=center;verticalAlign=middle;resizable=0;points=[];autosize=1;strokeColor=none;fillColor=none;" parent="1" vertex="1">
          <mxGeometry x="640" y="180" width="30" height="30" as="geometry" />
        </mxCell>
        <mxCell id="QxzIvFPPsnq7uUaEhteo-47" value="n" style="text;html=1;align=center;verticalAlign=middle;resizable=0;points=[];autosize=1;strokeColor=none;fillColor=none;" parent="1" vertex="1">
          <mxGeometry x="780" y="250" width="30" height="30" as="geometry" />
        </mxCell>
        <mxCell id="QxzIvFPPsnq7uUaEhteo-48" value="has" style="rhombus;whiteSpace=wrap;html=1;rounded=1;arcSize=10;" parent="1" vertex="1">
          <mxGeometry x="560" y="372.5" width="50" height="45" as="geometry" />
        </mxCell>
        <mxCell id="QxzIvFPPsnq7uUaEhteo-50" style="edgeStyle=orthogonalEdgeStyle;rounded=0;orthogonalLoop=1;jettySize=auto;html=1;entryX=0.88;entryY=0.522;entryDx=0;entryDy=0;entryPerimeter=0;" parent="1" edge="1">
          <mxGeometry relative="1" as="geometry">
            <mxPoint x="720" y="393" as="sourcePoint" />
            <mxPoint x="604" y="393.99" as="targetPoint" />
          </mxGeometry>
        </mxCell>
        <mxCell id="QxzIvFPPsnq7uUaEhteo-51" value="1" style="text;strokeColor=none;fillColor=none;spacingLeft=4;spacingRight=4;overflow=hidden;rotatable=0;points=[[0,0.5],[1,0.5]];portConstraint=eastwest;fontSize=12;whiteSpace=wrap;html=1;" parent="1" vertex="1">
          <mxGeometry x="690" y="365" width="40" height="30" as="geometry" />
        </mxCell>
        <mxCell id="QxzIvFPPsnq7uUaEhteo-52" value="m" style="text;html=1;align=center;verticalAlign=middle;resizable=0;points=[];autosize=1;strokeColor=none;fillColor=none;" parent="1" vertex="1">
          <mxGeometry x="440" y="440" width="30" height="30" as="geometry" />
        </mxCell>
        <mxCell id="16yrcvZxFUf8P6aVs9JN-1" value="ID" style="ellipse;whiteSpace=wrap;html=1;" parent="1" vertex="1">
          <mxGeometry x="55" y="160" width="60" height="40" as="geometry" />
        </mxCell>
        <mxCell id="16yrcvZxFUf8P6aVs9JN-2" value="SHORTCUT" style="ellipse;whiteSpace=wrap;html=1;" parent="1" vertex="1">
          <mxGeometry x="60" y="90" width="80" height="40" as="geometry" />
        </mxCell>
        <mxCell id="16yrcvZxFUf8P6aVs9JN-3" value="NAME" style="ellipse;whiteSpace=wrap;html=1;" parent="1" vertex="1">
          <mxGeometry x="60" y="230" width="50" height="40" as="geometry" />
        </mxCell>
        <mxCell id="16yrcvZxFUf8P6aVs9JN-14" value="" style="endArrow=none;html=1;rounded=0;exitX=1;exitY=0.5;exitDx=0;exitDy=0;entryX=0;entryY=1;entryDx=0;entryDy=0;" parent="1" source="16yrcvZxFUf8P6aVs9JN-3" target="QxzIvFPPsnq7uUaEhteo-8" edge="1">
          <mxGeometry width="50" height="50" relative="1" as="geometry">
            <mxPoint x="110" y="260" as="sourcePoint" />
            <mxPoint x="200" y="220" as="targetPoint" />
          </mxGeometry>
        </mxCell>
        <mxCell id="16yrcvZxFUf8P6aVs9JN-15" value="" style="endArrow=none;html=1;rounded=0;exitX=1;exitY=1;exitDx=0;exitDy=0;" parent="1" source="16yrcvZxFUf8P6aVs9JN-1" edge="1">
          <mxGeometry width="50" height="50" relative="1" as="geometry">
            <mxPoint x="150" y="200" as="sourcePoint" />
            <mxPoint x="200" y="210" as="targetPoint" />
          </mxGeometry>
        </mxCell>
        <mxCell id="16yrcvZxFUf8P6aVs9JN-16" value="" style="endArrow=none;html=1;rounded=0;exitX=0;exitY=0.25;exitDx=0;exitDy=0;entryX=1;entryY=1;entryDx=0;entryDy=0;" parent="1" source="QxzIvFPPsnq7uUaEhteo-8" target="16yrcvZxFUf8P6aVs9JN-2" edge="1">
          <mxGeometry width="50" height="50" relative="1" as="geometry">
            <mxPoint x="190" y="180" as="sourcePoint" />
            <mxPoint x="240" y="130" as="targetPoint" />
          </mxGeometry>
        </mxCell>
        <mxCell id="16yrcvZxFUf8P6aVs9JN-20" value="" style="edgeStyle=orthogonalEdgeStyle;rounded=0;orthogonalLoop=1;jettySize=auto;html=1;" parent="1" source="16yrcvZxFUf8P6aVs9JN-17" target="16yrcvZxFUf8P6aVs9JN-18" edge="1">
          <mxGeometry relative="1" as="geometry" />
        </mxCell>
        <mxCell id="16yrcvZxFUf8P6aVs9JN-17" value="External login provider" style="shape=ext;margin=3;double=1;whiteSpace=wrap;html=1;align=center;" parent="1" vertex="1">
          <mxGeometry x="700" y="580" width="140" height="40" as="geometry" />
        </mxCell>
        <mxCell id="16yrcvZxFUf8P6aVs9JN-18" value="has" style="shape=associativeEntity;whiteSpace=wrap;html=1;align=center;" parent="1" vertex="1">
          <mxGeometry x="750" y="470" width="40" height="40" as="geometry" />
        </mxCell>
        <mxCell id="16yrcvZxFUf8P6aVs9JN-21" value="1" style="text;html=1;align=center;verticalAlign=middle;resizable=0;points=[];autosize=1;strokeColor=none;fillColor=none;" parent="1" vertex="1">
          <mxGeometry x="735" y="550" width="30" height="30" as="geometry" />
        </mxCell>
        <mxCell id="16yrcvZxFUf8P6aVs9JN-22" value="m" style="text;html=1;align=center;verticalAlign=middle;resizable=0;points=[];autosize=1;strokeColor=none;fillColor=none;" parent="1" vertex="1">
          <mxGeometry x="735" y="415" width="30" height="30" as="geometry" />
        </mxCell>
        <mxCell id="16yrcvZxFUf8P6aVs9JN-25" value="ID" style="ellipse;whiteSpace=wrap;html=1;" parent="1" vertex="1">
          <mxGeometry x="930" y="545" width="60" height="40" as="geometry" />
        </mxCell>
        <mxCell id="16yrcvZxFUf8P6aVs9JN-26" value="NAME" style="ellipse;whiteSpace=wrap;html=1;" parent="1" vertex="1">
          <mxGeometry x="930" y="605" width="50" height="40" as="geometry" />
        </mxCell>
        <mxCell id="16yrcvZxFUf8P6aVs9JN-27" value="URL" style="ellipse;whiteSpace=wrap;html=1;" parent="1" vertex="1">
          <mxGeometry x="910" y="670" width="50" height="40" as="geometry" />
        </mxCell>
        <mxCell id="16yrcvZxFUf8P6aVs9JN-28" value="" style="endArrow=none;html=1;rounded=0;entryX=0;entryY=0.5;entryDx=0;entryDy=0;exitX=1;exitY=0.75;exitDx=0;exitDy=0;" parent="1" source="16yrcvZxFUf8P6aVs9JN-17" target="16yrcvZxFUf8P6aVs9JN-27" edge="1">
          <mxGeometry width="50" height="50" relative="1" as="geometry">
            <mxPoint x="830" y="700" as="sourcePoint" />
            <mxPoint x="880" y="650" as="targetPoint" />
          </mxGeometry>
        </mxCell>
        <mxCell id="16yrcvZxFUf8P6aVs9JN-29" value="" style="endArrow=none;html=1;rounded=0;entryX=0;entryY=0.5;entryDx=0;entryDy=0;exitX=1;exitY=0.5;exitDx=0;exitDy=0;" parent="1" source="16yrcvZxFUf8P6aVs9JN-17" target="16yrcvZxFUf8P6aVs9JN-26" edge="1">
          <mxGeometry width="50" height="50" relative="1" as="geometry">
            <mxPoint x="840" y="645" as="sourcePoint" />
            <mxPoint x="890" y="595" as="targetPoint" />
          </mxGeometry>
        </mxCell>
        <mxCell id="16yrcvZxFUf8P6aVs9JN-30" value="" style="endArrow=none;html=1;rounded=0;exitX=0;exitY=0.5;exitDx=0;exitDy=0;entryX=1;entryY=0.25;entryDx=0;entryDy=0;" parent="1" source="16yrcvZxFUf8P6aVs9JN-25" target="16yrcvZxFUf8P6aVs9JN-17" edge="1">
          <mxGeometry width="50" height="50" relative="1" as="geometry">
            <mxPoint x="930" y="570" as="sourcePoint" />
            <mxPoint x="840" y="460" as="targetPoint" />
          </mxGeometry>
        </mxCell>
        <mxCell id="16yrcvZxFUf8P6aVs9JN-32" value="ID" style="ellipse;whiteSpace=wrap;html=1;" parent="1" vertex="1">
          <mxGeometry x="840" y="270" width="60" height="40" as="geometry" />
        </mxCell>
        <mxCell id="16yrcvZxFUf8P6aVs9JN-33" value="EMAIL" style="ellipse;whiteSpace=wrap;html=1;" parent="1" vertex="1">
          <mxGeometry x="900" y="300" width="60" height="40" as="geometry" />
        </mxCell>
        <mxCell id="16yrcvZxFUf8P6aVs9JN-34" value="FIRST_NAME" style="ellipse;whiteSpace=wrap;html=1;" parent="1" vertex="1">
          <mxGeometry x="940" y="340" width="90" height="40" as="geometry" />
        </mxCell>
        <mxCell id="16yrcvZxFUf8P6aVs9JN-35" value="LAST_NAME" style="ellipse;whiteSpace=wrap;html=1;" parent="1" vertex="1">
          <mxGeometry x="940" y="390" width="100" height="40" as="geometry" />
        </mxCell>
        <mxCell id="16yrcvZxFUf8P6aVs9JN-36" value="REGISTERED_ON" style="ellipse;whiteSpace=wrap;html=1;" parent="1" vertex="1">
          <mxGeometry x="890" y="435" width="115" height="40" as="geometry" />
        </mxCell>
        <mxCell id="16yrcvZxFUf8P6aVs9JN-37" value="IS_ACTIVE" style="ellipse;whiteSpace=wrap;html=1;" parent="1" vertex="1">
          <mxGeometry x="820" y="455" width="70" height="40" as="geometry" />
        </mxCell>
        <mxCell id="16yrcvZxFUf8P6aVs9JN-38" value="" style="endArrow=none;html=1;rounded=0;entryX=0;entryY=0.5;entryDx=0;entryDy=0;exitX=1;exitY=0.25;exitDx=0;exitDy=0;" parent="1" source="QxzIvFPPsnq7uUaEhteo-42" target="16yrcvZxFUf8P6aVs9JN-34" edge="1">
          <mxGeometry width="50" height="50" relative="1" as="geometry">
            <mxPoint x="860" y="440" as="sourcePoint" />
            <mxPoint x="910" y="390" as="targetPoint" />
          </mxGeometry>
        </mxCell>
        <mxCell id="16yrcvZxFUf8P6aVs9JN-39" value="" style="endArrow=none;html=1;rounded=0;entryX=0;entryY=0.5;entryDx=0;entryDy=0;exitX=1;exitY=0;exitDx=0;exitDy=0;" parent="1" source="QxzIvFPPsnq7uUaEhteo-42" target="16yrcvZxFUf8P6aVs9JN-33" edge="1">
          <mxGeometry width="50" height="50" relative="1" as="geometry">
            <mxPoint x="840" y="410" as="sourcePoint" />
            <mxPoint x="890" y="360" as="targetPoint" />
          </mxGeometry>
        </mxCell>
        <mxCell id="16yrcvZxFUf8P6aVs9JN-40" value="" style="endArrow=none;html=1;rounded=0;entryX=0.167;entryY=0.75;entryDx=0;entryDy=0;entryPerimeter=0;exitX=0.75;exitY=0;exitDx=0;exitDy=0;" parent="1" source="QxzIvFPPsnq7uUaEhteo-42" target="16yrcvZxFUf8P6aVs9JN-32" edge="1">
          <mxGeometry width="50" height="50" relative="1" as="geometry">
            <mxPoint x="840" y="360" as="sourcePoint" />
            <mxPoint x="890" y="310" as="targetPoint" />
          </mxGeometry>
        </mxCell>
        <mxCell id="16yrcvZxFUf8P6aVs9JN-41" value="" style="endArrow=none;html=1;rounded=0;entryX=0;entryY=0.5;entryDx=0;entryDy=0;exitX=1;exitY=1;exitDx=0;exitDy=0;" parent="1" source="QxzIvFPPsnq7uUaEhteo-42" target="16yrcvZxFUf8P6aVs9JN-36" edge="1">
          <mxGeometry width="50" height="50" relative="1" as="geometry">
            <mxPoint x="820" y="420" as="sourcePoint" />
            <mxPoint x="890" y="435" as="targetPoint" />
          </mxGeometry>
        </mxCell>
        <mxCell id="16yrcvZxFUf8P6aVs9JN-42" value="" style="endArrow=none;html=1;rounded=0;entryX=0;entryY=0.5;entryDx=0;entryDy=0;exitX=1;exitY=0.5;exitDx=0;exitDy=0;" parent="1" source="QxzIvFPPsnq7uUaEhteo-42" target="16yrcvZxFUf8P6aVs9JN-35" edge="1">
          <mxGeometry width="50" height="50" relative="1" as="geometry">
            <mxPoint x="845" y="470" as="sourcePoint" />
            <mxPoint x="895" y="420" as="targetPoint" />
          </mxGeometry>
        </mxCell>
        <mxCell id="16yrcvZxFUf8P6aVs9JN-43" value="" style="endArrow=none;html=1;rounded=0;entryX=0;entryY=0;entryDx=0;entryDy=0;exitX=0.75;exitY=1;exitDx=0;exitDy=0;" parent="1" source="QxzIvFPPsnq7uUaEhteo-42" target="16yrcvZxFUf8P6aVs9JN-37" edge="1">
          <mxGeometry width="50" height="50" relative="1" as="geometry">
            <mxPoint x="590" y="450" as="sourcePoint" />
            <mxPoint x="640" y="400" as="targetPoint" />
          </mxGeometry>
        </mxCell>
        <mxCell id="16yrcvZxFUf8P6aVs9JN-55" style="edgeStyle=orthogonalEdgeStyle;rounded=0;orthogonalLoop=1;jettySize=auto;html=1;exitX=0;exitY=0.5;exitDx=0;exitDy=0;entryX=0.5;entryY=1;entryDx=0;entryDy=0;" parent="1" source="16yrcvZxFUf8P6aVs9JN-44" target="16yrcvZxFUf8P6aVs9JN-53" edge="1">
          <mxGeometry relative="1" as="geometry" />
        </mxCell>
        <mxCell id="16yrcvZxFUf8P6aVs9JN-44" value="File Extension" style="shape=ext;margin=3;double=1;whiteSpace=wrap;html=1;align=center;" parent="1" vertex="1">
          <mxGeometry x="625" y="840" width="100" height="40" as="geometry" />
        </mxCell>
        <mxCell id="16yrcvZxFUf8P6aVs9JN-45" value="EXTENSION_ABBREVIATION" style="ellipse;whiteSpace=wrap;html=1;" parent="1" vertex="1">
          <mxGeometry x="660" y="960" width="170" height="50" as="geometry" />
        </mxCell>
        <mxCell id="16yrcvZxFUf8P6aVs9JN-46" value="EXTENSION_NAME" style="ellipse;whiteSpace=wrap;html=1;" parent="1" vertex="1">
          <mxGeometry x="765" y="875" width="120" height="40" as="geometry" />
        </mxCell>
        <mxCell id="16yrcvZxFUf8P6aVs9JN-47" value="ID" style="ellipse;whiteSpace=wrap;html=1;" parent="1" vertex="1">
          <mxGeometry x="705" y="780" width="55" height="40" as="geometry" />
        </mxCell>
        <mxCell id="16yrcvZxFUf8P6aVs9JN-48" value="ICON" style="ellipse;whiteSpace=wrap;html=1;" parent="1" vertex="1">
          <mxGeometry x="775" y="810" width="70" height="40" as="geometry" />
        </mxCell>
        <mxCell id="16yrcvZxFUf8P6aVs9JN-49" value="" style="endArrow=none;html=1;rounded=0;entryX=0.5;entryY=0;entryDx=0;entryDy=0;exitX=0.677;exitY=0.963;exitDx=0;exitDy=0;exitPerimeter=0;" parent="1" source="16yrcvZxFUf8P6aVs9JN-44" target="16yrcvZxFUf8P6aVs9JN-45" edge="1">
          <mxGeometry width="50" height="50" relative="1" as="geometry">
            <mxPoint x="655" y="710" as="sourcePoint" />
            <mxPoint x="705" y="660" as="targetPoint" />
          </mxGeometry>
        </mxCell>
        <mxCell id="16yrcvZxFUf8P6aVs9JN-50" value="" style="endArrow=none;html=1;rounded=0;entryX=0;entryY=0.5;entryDx=0;entryDy=0;exitX=1;exitY=0.75;exitDx=0;exitDy=0;" parent="1" source="16yrcvZxFUf8P6aVs9JN-44" target="16yrcvZxFUf8P6aVs9JN-46" edge="1">
          <mxGeometry width="50" height="50" relative="1" as="geometry">
            <mxPoint x="718" y="881" as="sourcePoint" />
            <mxPoint x="705" y="660" as="targetPoint" />
          </mxGeometry>
        </mxCell>
        <mxCell id="16yrcvZxFUf8P6aVs9JN-51" value="" style="endArrow=none;html=1;rounded=0;entryX=0;entryY=0.5;entryDx=0;entryDy=0;exitX=1;exitY=0.25;exitDx=0;exitDy=0;" parent="1" source="16yrcvZxFUf8P6aVs9JN-44" target="16yrcvZxFUf8P6aVs9JN-48" edge="1">
          <mxGeometry width="50" height="50" relative="1" as="geometry">
            <mxPoint x="655" y="710" as="sourcePoint" />
            <mxPoint x="705" y="660" as="targetPoint" />
          </mxGeometry>
        </mxCell>
        <mxCell id="16yrcvZxFUf8P6aVs9JN-52" value="" style="endArrow=none;html=1;rounded=0;entryX=0;entryY=1;entryDx=0;entryDy=0;exitX=0.75;exitY=0;exitDx=0;exitDy=0;" parent="1" source="16yrcvZxFUf8P6aVs9JN-44" target="16yrcvZxFUf8P6aVs9JN-47" edge="1">
          <mxGeometry width="50" height="50" relative="1" as="geometry">
            <mxPoint x="655" y="710" as="sourcePoint" />
            <mxPoint x="705" y="660" as="targetPoint" />
          </mxGeometry>
        </mxCell>
        <mxCell id="16yrcvZxFUf8P6aVs9JN-53" value="has" style="shape=associativeEntity;whiteSpace=wrap;html=1;align=center;" parent="1" vertex="1">
          <mxGeometry x="525" y="760" width="40" height="40" as="geometry" />
        </mxCell>
        <mxCell id="16yrcvZxFUf8P6aVs9JN-56" value="m" style="text;html=1;align=center;verticalAlign=middle;resizable=0;points=[];autosize=1;strokeColor=none;fillColor=none;" parent="1" vertex="1">
          <mxGeometry x="440" y="680" width="30" height="30" as="geometry" />
        </mxCell>
        <mxCell id="16yrcvZxFUf8P6aVs9JN-57" value="1" style="text;html=1;align=center;verticalAlign=middle;resizable=0;points=[];autosize=1;strokeColor=none;fillColor=none;" parent="1" vertex="1">
          <mxGeometry x="595" y="830" width="30" height="30" as="geometry" />
        </mxCell>
        <mxCell id="16yrcvZxFUf8P6aVs9JN-58" value="ID" style="ellipse;whiteSpace=wrap;html=1;" parent="1" vertex="1">
          <mxGeometry x="210" y="740" width="55" height="40" as="geometry" />
        </mxCell>
        <mxCell id="16yrcvZxFUf8P6aVs9JN-59" value="NAME" style="ellipse;whiteSpace=wrap;html=1;" parent="1" vertex="1">
          <mxGeometry x="235" y="790" width="50" height="40" as="geometry" />
        </mxCell>
        <mxCell id="16yrcvZxFUf8P6aVs9JN-60" value="CREATED_ON" style="ellipse;whiteSpace=wrap;html=1;" parent="1" vertex="1">
          <mxGeometry x="235" y="850" width="95" height="40" as="geometry" />
        </mxCell>
        <mxCell id="16yrcvZxFUf8P6aVs9JN-61" value="MODIFIED_ON" style="ellipse;whiteSpace=wrap;html=1;" parent="1" vertex="1">
          <mxGeometry x="330" y="860" width="100" height="40" as="geometry" />
        </mxCell>
        <mxCell id="16yrcvZxFUf8P6aVs9JN-62" value="LOCATION" style="ellipse;whiteSpace=wrap;html=1;" parent="1" vertex="1">
          <mxGeometry x="425" y="820" width="80" height="40" as="geometry" />
        </mxCell>
        <mxCell id="16yrcvZxFUf8P6aVs9JN-63" value="SIZE_MB" style="ellipse;whiteSpace=wrap;html=1;" parent="1" vertex="1">
          <mxGeometry x="440" y="760" width="80" height="40" as="geometry" />
        </mxCell>
        <mxCell id="16yrcvZxFUf8P6aVs9JN-66" value="" style="endArrow=none;html=1;rounded=0;exitX=0;exitY=0;exitDx=0;exitDy=0;entryX=1;entryY=1;entryDx=0;entryDy=0;" parent="1" source="16yrcvZxFUf8P6aVs9JN-63" target="QxzIvFPPsnq7uUaEhteo-6" edge="1">
          <mxGeometry width="50" height="50" relative="1" as="geometry">
            <mxPoint x="590" y="680" as="sourcePoint" />
            <mxPoint x="640" y="630" as="targetPoint" />
          </mxGeometry>
        </mxCell>
        <mxCell id="16yrcvZxFUf8P6aVs9JN-67" value="" style="endArrow=none;html=1;rounded=0;exitX=0;exitY=0.5;exitDx=0;exitDy=0;entryX=0.75;entryY=1;entryDx=0;entryDy=0;" parent="1" source="16yrcvZxFUf8P6aVs9JN-62" target="QxzIvFPPsnq7uUaEhteo-6" edge="1">
          <mxGeometry width="50" height="50" relative="1" as="geometry">
            <mxPoint x="590" y="680" as="sourcePoint" />
            <mxPoint x="640" y="630" as="targetPoint" />
          </mxGeometry>
        </mxCell>
        <mxCell id="16yrcvZxFUf8P6aVs9JN-68" value="" style="endArrow=none;html=1;rounded=0;exitX=0.5;exitY=0;exitDx=0;exitDy=0;entryX=0.5;entryY=1;entryDx=0;entryDy=0;" parent="1" source="16yrcvZxFUf8P6aVs9JN-61" target="QxzIvFPPsnq7uUaEhteo-6" edge="1">
          <mxGeometry width="50" height="50" relative="1" as="geometry">
            <mxPoint x="590" y="680" as="sourcePoint" />
            <mxPoint x="640" y="630" as="targetPoint" />
          </mxGeometry>
        </mxCell>
        <mxCell id="16yrcvZxFUf8P6aVs9JN-69" value="" style="endArrow=none;html=1;rounded=0;exitX=0.5;exitY=0;exitDx=0;exitDy=0;entryX=0.159;entryY=1.037;entryDx=0;entryDy=0;entryPerimeter=0;" parent="1" source="16yrcvZxFUf8P6aVs9JN-60" target="QxzIvFPPsnq7uUaEhteo-6" edge="1">
          <mxGeometry width="50" height="50" relative="1" as="geometry">
            <mxPoint x="590" y="680" as="sourcePoint" />
            <mxPoint x="640" y="630" as="targetPoint" />
          </mxGeometry>
        </mxCell>
        <mxCell id="16yrcvZxFUf8P6aVs9JN-70" value="" style="endArrow=none;html=1;rounded=0;exitX=1;exitY=0;exitDx=0;exitDy=0;entryX=0;entryY=1;entryDx=0;entryDy=0;" parent="1" source="16yrcvZxFUf8P6aVs9JN-59" target="QxzIvFPPsnq7uUaEhteo-6" edge="1">
          <mxGeometry width="50" height="50" relative="1" as="geometry">
            <mxPoint x="590" y="680" as="sourcePoint" />
            <mxPoint x="640" y="630" as="targetPoint" />
          </mxGeometry>
        </mxCell>
        <mxCell id="16yrcvZxFUf8P6aVs9JN-71" value="" style="endArrow=none;html=1;rounded=0;exitX=1;exitY=0.5;exitDx=0;exitDy=0;entryX=0;entryY=0.75;entryDx=0;entryDy=0;" parent="1" source="16yrcvZxFUf8P6aVs9JN-58" target="QxzIvFPPsnq7uUaEhteo-6" edge="1">
          <mxGeometry width="50" height="50" relative="1" as="geometry">
            <mxPoint x="590" y="680" as="sourcePoint" />
            <mxPoint x="340" y="730" as="targetPoint" />
          </mxGeometry>
        </mxCell>
        <mxCell id="16yrcvZxFUf8P6aVs9JN-72" value="ID" style="ellipse;whiteSpace=wrap;html=1;" parent="1" vertex="1">
          <mxGeometry x="480" y="70" width="55" height="40" as="geometry" />
        </mxCell>
        <mxCell id="16yrcvZxFUf8P6aVs9JN-73" value="NAME" style="ellipse;whiteSpace=wrap;html=1;" parent="1" vertex="1">
          <mxGeometry x="560" y="70" width="50" height="40" as="geometry" />
        </mxCell>
        <mxCell id="16yrcvZxFUf8P6aVs9JN-74" value="SIZE_MB" style="ellipse;whiteSpace=wrap;html=1;" parent="1" vertex="1">
          <mxGeometry x="625" y="70" width="80" height="40" as="geometry" />
        </mxCell>
        <mxCell id="16yrcvZxFUf8P6aVs9JN-75" value="" style="endArrow=none;html=1;rounded=0;exitX=0.5;exitY=1;exitDx=0;exitDy=0;entryX=0.75;entryY=0;entryDx=0;entryDy=0;" parent="1" source="16yrcvZxFUf8P6aVs9JN-74" target="QxzIvFPPsnq7uUaEhteo-7" edge="1">
          <mxGeometry width="50" height="50" relative="1" as="geometry">
            <mxPoint x="580" y="330" as="sourcePoint" />
            <mxPoint x="630" y="280" as="targetPoint" />
          </mxGeometry>
        </mxCell>
        <mxCell id="16yrcvZxFUf8P6aVs9JN-76" value="" style="endArrow=none;html=1;rounded=0;exitX=0.5;exitY=1;exitDx=0;exitDy=0;entryX=0.5;entryY=0;entryDx=0;entryDy=0;" parent="1" source="16yrcvZxFUf8P6aVs9JN-73" target="QxzIvFPPsnq7uUaEhteo-7" edge="1">
          <mxGeometry width="50" height="50" relative="1" as="geometry">
            <mxPoint x="580" y="330" as="sourcePoint" />
            <mxPoint x="630" y="280" as="targetPoint" />
          </mxGeometry>
        </mxCell>
        <mxCell id="16yrcvZxFUf8P6aVs9JN-77" value="" style="endArrow=none;html=1;rounded=0;exitX=0.5;exitY=1;exitDx=0;exitDy=0;entryX=0.25;entryY=0;entryDx=0;entryDy=0;" parent="1" source="16yrcvZxFUf8P6aVs9JN-72" target="QxzIvFPPsnq7uUaEhteo-7" edge="1">
          <mxGeometry width="50" height="50" relative="1" as="geometry">
            <mxPoint x="580" y="330" as="sourcePoint" />
            <mxPoint x="630" y="280" as="targetPoint" />
          </mxGeometry>
        </mxCell>
        <mxCell id="16yrcvZxFUf8P6aVs9JN-78" value="ID" style="ellipse;whiteSpace=wrap;html=1;" parent="1" vertex="1">
          <mxGeometry x="5" y="525" width="55" height="40" as="geometry" />
        </mxCell>
        <mxCell id="16yrcvZxFUf8P6aVs9JN-79" value="NAME" style="ellipse;whiteSpace=wrap;html=1;" parent="1" vertex="1">
          <mxGeometry x="10" y="595" width="50" height="40" as="geometry" />
        </mxCell>
        <mxCell id="16yrcvZxFUf8P6aVs9JN-80" value="" style="endArrow=none;html=1;rounded=0;exitX=1;exitY=0.5;exitDx=0;exitDy=0;entryX=0;entryY=0.75;entryDx=0;entryDy=0;" parent="1" source="16yrcvZxFUf8P6aVs9JN-79" target="QxzIvFPPsnq7uUaEhteo-4" edge="1">
          <mxGeometry width="50" height="50" relative="1" as="geometry">
            <mxPoint x="580" y="560" as="sourcePoint" />
            <mxPoint x="630" y="510" as="targetPoint" />
          </mxGeometry>
        </mxCell>
        <mxCell id="16yrcvZxFUf8P6aVs9JN-81" value="" style="endArrow=none;html=1;rounded=0;exitX=1;exitY=0.5;exitDx=0;exitDy=0;entryX=0;entryY=0.25;entryDx=0;entryDy=0;" parent="1" source="16yrcvZxFUf8P6aVs9JN-78" target="QxzIvFPPsnq7uUaEhteo-4" edge="1">
          <mxGeometry width="50" height="50" relative="1" as="geometry">
            <mxPoint x="580" y="560" as="sourcePoint" />
            <mxPoint x="630" y="510" as="targetPoint" />
          </mxGeometry>
        </mxCell>
        <mxCell id="16yrcvZxFUf8P6aVs9JN-83" value="ID" style="ellipse;whiteSpace=wrap;html=1;" parent="1" vertex="1">
          <mxGeometry x="452.5" y="505" width="55" height="40" as="geometry" />
        </mxCell>
        <mxCell id="16yrcvZxFUf8P6aVs9JN-84" value="IS_RESTRICTED" style="ellipse;whiteSpace=wrap;html=1;" parent="1" vertex="1">
          <mxGeometry x="510" y="475" width="120" height="40" as="geometry" />
        </mxCell>
        <mxCell id="16yrcvZxFUf8P6aVs9JN-85" value="BACKGROUND_MODE" style="ellipse;whiteSpace=wrap;html=1;" parent="1" vertex="1">
          <mxGeometry x="437.5" y="555" width="155" height="40" as="geometry" />
        </mxCell>
        <mxCell id="16yrcvZxFUf8P6aVs9JN-87" value="" style="endArrow=none;html=1;rounded=0;exitX=0;exitY=0.5;exitDx=0;exitDy=0;entryX=0.75;entryY=1;entryDx=0;entryDy=0;" parent="1" source="16yrcvZxFUf8P6aVs9JN-85" target="QxzIvFPPsnq7uUaEhteo-5" edge="1">
          <mxGeometry width="50" height="50" relative="1" as="geometry">
            <mxPoint x="580" y="560" as="sourcePoint" />
            <mxPoint x="630" y="510" as="targetPoint" />
          </mxGeometry>
        </mxCell>
        <mxCell id="16yrcvZxFUf8P6aVs9JN-88" value="" style="endArrow=none;html=1;rounded=0;exitX=0;exitY=0.5;exitDx=0;exitDy=0;entryX=1;entryY=0.75;entryDx=0;entryDy=0;" parent="1" source="16yrcvZxFUf8P6aVs9JN-84" target="QxzIvFPPsnq7uUaEhteo-5" edge="1">
          <mxGeometry width="50" height="50" relative="1" as="geometry">
            <mxPoint x="580" y="560" as="sourcePoint" />
            <mxPoint x="630" y="510" as="targetPoint" />
          </mxGeometry>
        </mxCell>
        <mxCell id="16yrcvZxFUf8P6aVs9JN-89" value="" style="endArrow=none;html=1;rounded=0;exitX=0;exitY=0;exitDx=0;exitDy=0;entryX=1;entryY=1;entryDx=0;entryDy=0;" parent="1" source="16yrcvZxFUf8P6aVs9JN-83" target="QxzIvFPPsnq7uUaEhteo-5" edge="1">
          <mxGeometry width="50" height="50" relative="1" as="geometry">
            <mxPoint x="580" y="560" as="sourcePoint" />
            <mxPoint x="630" y="510" as="targetPoint" />
          </mxGeometry>
        </mxCell>
        <mxCell id="16yrcvZxFUf8P6aVs9JN-112" value="" style="edgeStyle=entityRelationEdgeStyle;fontSize=12;html=1;endArrow=ERoneToMany;startArrow=ERmandOne;rounded=0;entryX=0;entryY=0.5;entryDx=0;entryDy=0;exitX=0.995;exitY=0.1;exitDx=0;exitDy=0;exitPerimeter=0;" parent="1" source="ZNygfHk2cqa3fx--3s6A-69" target="ZNygfHk2cqa3fx--3s6A-57" edge="1">
          <mxGeometry width="100" height="100" relative="1" as="geometry">
            <mxPoint x="310" y="762" as="sourcePoint" />
            <mxPoint x="410" y="662" as="targetPoint" />
          </mxGeometry>
        </mxCell>
        <mxCell id="16yrcvZxFUf8P6aVs9JN-113" value="" style="edgeStyle=entityRelationEdgeStyle;fontSize=12;html=1;endArrow=ERzeroToMany;startArrow=ERzeroToOne;rounded=0;entryX=1;entryY=0.5;entryDx=0;entryDy=0;exitX=0;exitY=0.5;exitDx=0;exitDy=0;" parent="1" source="ZNygfHk2cqa3fx--3s6A-52" target="ZNygfHk2cqa3fx--3s6A-57" edge="1">
          <mxGeometry width="100" height="100" relative="1" as="geometry">
            <mxPoint x="920" y="792" as="sourcePoint" />
            <mxPoint x="1020" y="692" as="targetPoint" />
          </mxGeometry>
        </mxCell>
        <mxCell id="16yrcvZxFUf8P6aVs9JN-114" value="m" style="text;html=1;align=center;verticalAlign=middle;resizable=0;points=[];autosize=1;strokeColor=none;fillColor=none;" parent="1" vertex="1">
          <mxGeometry x="365" y="485" width="30" height="30" as="geometry" />
        </mxCell>
        <mxCell id="16yrcvZxFUf8P6aVs9JN-115" value="" style="fontSize=12;html=1;endArrow=ERoneToMany;startArrow=ERzeroToMany;rounded=0;exitX=0.5;exitY=0;exitDx=0;exitDy=0;entryX=0;entryY=0.5;entryDx=0;entryDy=0;" parent="1" source="ZNygfHk2cqa3fx--3s6A-54" target="ZNygfHk2cqa3fx--3s6A-42" edge="1">
          <mxGeometry width="100" height="100" relative="1" as="geometry">
            <mxPoint x="1050" y="937" as="sourcePoint" />
            <mxPoint x="1120" y="687" as="targetPoint" />
            <Array as="points">
              <mxPoint x="1720" y="695" />
            </Array>
          </mxGeometry>
        </mxCell>
        <mxCell id="16yrcvZxFUf8P6aVs9JN-119" value="" style="fontSize=12;html=1;endArrow=ERoneToMany;startArrow=ERzeroToOne;rounded=0;exitX=0.512;exitY=1.071;exitDx=0;exitDy=0;entryX=0.533;entryY=0.004;entryDx=0;entryDy=0;exitPerimeter=0;entryPerimeter=0;" parent="1" source="ZNygfHk2cqa3fx--3s6A-30" target="ZNygfHk2cqa3fx--3s6A-39" edge="1">
          <mxGeometry width="100" height="100" relative="1" as="geometry">
            <mxPoint x="2149.29" y="506" as="sourcePoint" />
            <mxPoint x="2149.29" y="706" as="targetPoint" />
          </mxGeometry>
        </mxCell>
        <mxCell id="16yrcvZxFUf8P6aVs9JN-120" value="" style="fontSize=12;html=1;endArrow=ERoneToMany;startArrow=ERzeroToMany;rounded=0;entryX=0;entryY=0.5;entryDx=0;entryDy=0;exitX=0.493;exitY=1.095;exitDx=0;exitDy=0;exitPerimeter=0;" parent="1" source="ZNygfHk2cqa3fx--3s6A-17" target="ZNygfHk2cqa3fx--3s6A-41" edge="1">
          <mxGeometry width="100" height="100" relative="1" as="geometry">
            <mxPoint x="480" y="607" as="sourcePoint" />
            <mxPoint x="580" y="507" as="targetPoint" />
            <Array as="points">
              <mxPoint x="1723" y="662" />
            </Array>
          </mxGeometry>
        </mxCell>
        <mxCell id="16yrcvZxFUf8P6aVs9JN-121" value="" style="fontSize=12;html=1;endArrow=ERoneToMany;startArrow=ERzeroToOne;rounded=0;entryX=0.485;entryY=0.962;entryDx=0;entryDy=0;exitX=0.5;exitY=0;exitDx=0;exitDy=0;entryPerimeter=0;" parent="1" source="ZNygfHk2cqa3fx--3s6A-50" target="ZNygfHk2cqa3fx--3s6A-43" edge="1">
          <mxGeometry width="100" height="100" relative="1" as="geometry">
            <mxPoint x="480" y="607" as="sourcePoint" />
            <mxPoint x="580" y="507" as="targetPoint" />
            <Array as="points" />
          </mxGeometry>
        </mxCell>
        <mxCell id="ZNygfHk2cqa3fx--3s6A-14" value="Extension" style="swimlane;fontStyle=0;childLayout=stackLayout;horizontal=1;startSize=26;horizontalStack=0;resizeParent=1;resizeParentMax=0;resizeLast=0;collapsible=1;marginBottom=0;align=center;fontSize=14;" vertex="1" parent="1">
          <mxGeometry x="1610" y="344" width="230" height="116" as="geometry" />
        </mxCell>
        <mxCell id="ZNygfHk2cqa3fx--3s6A-15" value="&lt;div style=&quot;&quot;&gt;&lt;span style=&quot;background-color: initial;&quot;&gt;ID&lt;/span&gt;&lt;span style=&quot;background-color: initial; white-space: pre;&quot;&gt;&#x9;&lt;/span&gt;&amp;nbsp; &amp;nbsp; &amp;nbsp; &amp;nbsp; &amp;nbsp; &lt;span style=&quot;background-color: initial;&quot;&gt;UNIQUEIDENTIFIER&amp;nbsp; &amp;nbsp; &amp;nbsp; &amp;nbsp; &amp;nbsp;PK&lt;/span&gt;&lt;/div&gt;" style="text;strokeColor=none;fillColor=none;spacingLeft=4;spacingRight=4;overflow=hidden;rotatable=0;points=[[0,0.5],[1,0.5]];portConstraint=eastwest;fontSize=12;whiteSpace=wrap;html=1;align=left;" vertex="1" parent="ZNygfHk2cqa3fx--3s6A-14">
          <mxGeometry y="26" width="230" height="30" as="geometry" />
        </mxCell>
        <mxCell id="ZNygfHk2cqa3fx--3s6A-16" value="NAME&amp;nbsp; &amp;nbsp; &amp;nbsp; &amp;nbsp; VARCHAR(MAX)" style="text;strokeColor=none;fillColor=none;spacingLeft=4;spacingRight=4;overflow=hidden;rotatable=0;points=[[0,0.5],[1,0.5]];portConstraint=eastwest;fontSize=12;whiteSpace=wrap;html=1;" vertex="1" parent="ZNygfHk2cqa3fx--3s6A-14">
          <mxGeometry y="56" width="230" height="30" as="geometry" />
        </mxCell>
        <mxCell id="ZNygfHk2cqa3fx--3s6A-17" value="SIZE_MB&amp;nbsp; &amp;nbsp;DECIMAL(4,2)" style="text;strokeColor=none;fillColor=none;spacingLeft=4;spacingRight=4;overflow=hidden;rotatable=0;points=[[0,0.5],[1,0.5]];portConstraint=eastwest;fontSize=12;whiteSpace=wrap;html=1;" vertex="1" parent="ZNygfHk2cqa3fx--3s6A-14">
          <mxGeometry y="86" width="230" height="30" as="geometry" />
        </mxCell>
        <mxCell id="ZNygfHk2cqa3fx--3s6A-18" value="User" style="swimlane;fontStyle=0;childLayout=stackLayout;horizontal=1;startSize=26;horizontalStack=0;resizeParent=1;resizeParentMax=0;resizeLast=0;collapsible=1;marginBottom=0;align=center;fontSize=14;" vertex="1" parent="1">
          <mxGeometry x="1950" y="270" width="410" height="236" as="geometry" />
        </mxCell>
        <mxCell id="ZNygfHk2cqa3fx--3s6A-19" value="&lt;div style=&quot;&quot;&gt;&lt;span style=&quot;background-color: initial;&quot;&gt;ID&lt;/span&gt;&lt;span style=&quot;background-color: initial; white-space: pre;&quot;&gt;&#x9;&lt;/span&gt;&amp;nbsp;&amp;nbsp;&lt;span style=&quot;white-space: pre;&quot;&gt;&#x9;&lt;/span&gt;&lt;span style=&quot;white-space: pre;&quot;&gt;&#x9;&lt;/span&gt;&lt;span style=&quot;white-space: pre;&quot;&gt;&#x9;&lt;/span&gt;&lt;span style=&quot;white-space: pre;&quot;&gt;&#x9;&lt;/span&gt;&lt;span style=&quot;white-space: pre;&quot;&gt;&#x9;&lt;/span&gt;&lt;span style=&quot;white-space: pre;&quot;&gt;&#x9;&lt;/span&gt;&amp;nbsp; &amp;nbsp; &amp;nbsp; &amp;nbsp; &amp;nbsp; &lt;span style=&quot;background-color: initial;&quot;&gt;UNIQUEIDENTIFIER&amp;nbsp; &amp;nbsp; &amp;nbsp; &amp;nbsp; &amp;nbsp; &amp;nbsp; &amp;nbsp; PK&lt;/span&gt;&lt;/div&gt;" style="text;strokeColor=none;fillColor=none;spacingLeft=4;spacingRight=4;overflow=hidden;rotatable=0;points=[[0,0.5],[1,0.5]];portConstraint=eastwest;fontSize=12;whiteSpace=wrap;html=1;align=left;" vertex="1" parent="ZNygfHk2cqa3fx--3s6A-18">
          <mxGeometry y="26" width="410" height="30" as="geometry" />
        </mxCell>
        <mxCell id="ZNygfHk2cqa3fx--3s6A-20" value="EMAIL&amp;nbsp; &amp;nbsp; &amp;nbsp; &amp;nbsp; &lt;span style=&quot;white-space: pre;&quot;&gt;&#x9;&lt;/span&gt;&lt;span style=&quot;white-space: pre;&quot;&gt;&#x9;&lt;/span&gt;&lt;span style=&quot;white-space: pre;&quot;&gt;&#x9;&lt;/span&gt;&lt;span style=&quot;white-space: pre;&quot;&gt;&#x9;&lt;/span&gt;&lt;span style=&quot;white-space: pre;&quot;&gt;&#x9;&lt;/span&gt;&lt;span style=&quot;white-space: pre;&quot;&gt;&#x9;&lt;/span&gt;&amp;nbsp; VARCHAR(255)" style="text;strokeColor=none;fillColor=none;spacingLeft=4;spacingRight=4;overflow=hidden;rotatable=0;points=[[0,0.5],[1,0.5]];portConstraint=eastwest;fontSize=12;whiteSpace=wrap;html=1;" vertex="1" parent="ZNygfHk2cqa3fx--3s6A-18">
          <mxGeometry y="56" width="410" height="30" as="geometry" />
        </mxCell>
        <mxCell id="ZNygfHk2cqa3fx--3s6A-21" value="FIRST_NAME &lt;span style=&quot;white-space: pre;&quot;&gt;&#x9;&lt;/span&gt;&lt;span style=&quot;white-space: pre;&quot;&gt;&#x9;&lt;/span&gt;&lt;span style=&quot;white-space: pre;&quot;&gt;&#x9;&lt;/span&gt;&lt;span style=&quot;white-space: pre;&quot;&gt;&#x9;&lt;/span&gt;&lt;span style=&quot;white-space: pre;&quot;&gt;&#x9;&lt;/span&gt;&amp;nbsp; VARCHAR(100)" style="text;strokeColor=none;fillColor=none;spacingLeft=4;spacingRight=4;overflow=hidden;rotatable=0;points=[[0,0.5],[1,0.5]];portConstraint=eastwest;fontSize=12;whiteSpace=wrap;html=1;" vertex="1" parent="ZNygfHk2cqa3fx--3s6A-18">
          <mxGeometry y="86" width="410" height="30" as="geometry" />
        </mxCell>
        <mxCell id="ZNygfHk2cqa3fx--3s6A-22" value="LAST_NAME &lt;span style=&quot;white-space: pre;&quot;&gt;&#x9;&lt;/span&gt;&lt;span style=&quot;white-space: pre;&quot;&gt;&#x9;&lt;/span&gt;&lt;span style=&quot;white-space: pre;&quot;&gt;&#x9;&lt;/span&gt;&lt;span style=&quot;white-space: pre;&quot;&gt;&#x9;&lt;/span&gt;&lt;span style=&quot;white-space: pre;&quot;&gt;&#x9;&lt;/span&gt;&lt;span style=&quot;white-space: pre;&quot;&gt;&#x9;&lt;/span&gt;&amp;nbsp; VARCHAR(100)" style="text;strokeColor=none;fillColor=none;spacingLeft=4;spacingRight=4;overflow=hidden;rotatable=0;points=[[0,0.5],[1,0.5]];portConstraint=eastwest;fontSize=12;whiteSpace=wrap;html=1;" vertex="1" parent="ZNygfHk2cqa3fx--3s6A-18">
          <mxGeometry y="116" width="410" height="30" as="geometry" />
        </mxCell>
        <mxCell id="ZNygfHk2cqa3fx--3s6A-23" value="REGISTERED_ON&lt;span style=&quot;white-space: pre;&quot;&gt;&#x9;&lt;/span&gt;&lt;span style=&quot;white-space: pre;&quot;&gt;&#x9;&lt;/span&gt;&lt;span style=&quot;white-space: pre;&quot;&gt;&#x9;&lt;/span&gt;&lt;span style=&quot;white-space: pre;&quot;&gt;&#x9;&lt;/span&gt;&amp;nbsp; &amp;nbsp; &amp;nbsp; &amp;nbsp; &amp;nbsp; DATETIME" style="text;strokeColor=none;fillColor=none;spacingLeft=4;spacingRight=4;overflow=hidden;rotatable=0;points=[[0,0.5],[1,0.5]];portConstraint=eastwest;fontSize=12;whiteSpace=wrap;html=1;" vertex="1" parent="ZNygfHk2cqa3fx--3s6A-18">
          <mxGeometry y="146" width="410" height="30" as="geometry" />
        </mxCell>
        <mxCell id="ZNygfHk2cqa3fx--3s6A-24" value="IS_ ACTIVE&lt;span style=&quot;white-space: pre;&quot;&gt;&#x9;&lt;/span&gt;&lt;span style=&quot;white-space: pre;&quot;&gt;&#x9;&lt;/span&gt;&lt;span style=&quot;white-space: pre;&quot;&gt;&#x9;&lt;/span&gt;&lt;span style=&quot;white-space: pre;&quot;&gt;&#x9;&lt;/span&gt;&lt;span style=&quot;white-space: pre;&quot;&gt;&#x9;&lt;/span&gt;&lt;span style=&quot;white-space: pre;&quot;&gt;&#x9;&lt;/span&gt;&amp;nbsp; BIT" style="text;strokeColor=none;fillColor=none;spacingLeft=4;spacingRight=4;overflow=hidden;rotatable=0;points=[[0,0.5],[1,0.5]];portConstraint=eastwest;fontSize=12;whiteSpace=wrap;html=1;" vertex="1" parent="ZNygfHk2cqa3fx--3s6A-18">
          <mxGeometry y="176" width="410" height="30" as="geometry" />
        </mxCell>
        <mxCell id="ZNygfHk2cqa3fx--3s6A-30" value="&lt;span style=&quot;text-wrap-mode: nowrap;&quot;&gt;EXTERNAL_LOGIN_PROVIDER_ID&amp;nbsp; &amp;nbsp; &amp;nbsp; &amp;nbsp;UNIQUEINDETIFIER&amp;nbsp; &amp;nbsp; &amp;nbsp; &amp;nbsp; &amp;nbsp; &amp;nbsp; &amp;nbsp; &amp;nbsp;FK&lt;/span&gt;" style="text;strokeColor=none;fillColor=none;spacingLeft=4;spacingRight=4;overflow=hidden;rotatable=0;points=[[0,0.5],[1,0.5]];portConstraint=eastwest;fontSize=12;whiteSpace=wrap;html=1;" vertex="1" parent="ZNygfHk2cqa3fx--3s6A-18">
          <mxGeometry y="206" width="410" height="30" as="geometry" />
        </mxCell>
        <mxCell id="ZNygfHk2cqa3fx--3s6A-35" value="External login provider" style="swimlane;fontStyle=0;childLayout=stackLayout;horizontal=1;startSize=26;horizontalStack=0;resizeParent=1;resizeParentMax=0;resizeLast=0;collapsible=1;marginBottom=0;align=center;fontSize=14;" vertex="1" parent="1">
          <mxGeometry x="2480" y="344" width="240" height="116" as="geometry" />
        </mxCell>
        <mxCell id="ZNygfHk2cqa3fx--3s6A-36" value="&lt;div style=&quot;&quot;&gt;&lt;span style=&quot;background-color: initial;&quot;&gt;ID&lt;/span&gt;&lt;span style=&quot;background-color: initial; white-space: pre;&quot;&gt;&#x9;&lt;/span&gt;&amp;nbsp; &amp;nbsp; &amp;nbsp; &amp;nbsp; &amp;nbsp; &amp;nbsp;&lt;span style=&quot;background-color: initial;&quot;&gt;UNIQUEIDENTIFIER&amp;nbsp; &amp;nbsp; &amp;nbsp; &amp;nbsp; &amp;nbsp;PK&lt;/span&gt;&lt;/div&gt;" style="text;strokeColor=none;fillColor=none;spacingLeft=4;spacingRight=4;overflow=hidden;rotatable=0;points=[[0,0.5],[1,0.5]];portConstraint=eastwest;fontSize=12;whiteSpace=wrap;html=1;align=left;" vertex="1" parent="ZNygfHk2cqa3fx--3s6A-35">
          <mxGeometry y="26" width="240" height="30" as="geometry" />
        </mxCell>
        <mxCell id="ZNygfHk2cqa3fx--3s6A-37" value="NAME&amp;nbsp; &amp;nbsp; &amp;nbsp; &amp;nbsp; &amp;nbsp;VARCHAR(255)" style="text;strokeColor=none;fillColor=none;spacingLeft=4;spacingRight=4;overflow=hidden;rotatable=0;points=[[0,0.5],[1,0.5]];portConstraint=eastwest;fontSize=12;whiteSpace=wrap;html=1;" vertex="1" parent="ZNygfHk2cqa3fx--3s6A-35">
          <mxGeometry y="56" width="240" height="30" as="geometry" />
        </mxCell>
        <mxCell id="ZNygfHk2cqa3fx--3s6A-38" value="URL&amp;nbsp; &amp;nbsp; &amp;nbsp; &amp;nbsp; &amp;nbsp; &amp;nbsp; VARCHAR(300)" style="text;strokeColor=none;fillColor=none;spacingLeft=4;spacingRight=4;overflow=hidden;rotatable=0;points=[[0,0.5],[1,0.5]];portConstraint=eastwest;fontSize=12;whiteSpace=wrap;html=1;" vertex="1" parent="ZNygfHk2cqa3fx--3s6A-35">
          <mxGeometry y="86" width="240" height="30" as="geometry" />
        </mxCell>
        <mxCell id="ZNygfHk2cqa3fx--3s6A-39" value="Workspace" style="swimlane;fontStyle=0;childLayout=stackLayout;horizontal=1;startSize=26;horizontalStack=0;resizeParent=1;resizeParentMax=0;resizeLast=0;collapsible=1;marginBottom=0;align=center;fontSize=14;" vertex="1" parent="1">
          <mxGeometry x="1980" y="594" width="340" height="146" as="geometry" />
        </mxCell>
        <mxCell id="ZNygfHk2cqa3fx--3s6A-40" value="&lt;div style=&quot;&quot;&gt;&lt;span style=&quot;background-color: initial;&quot;&gt;ID&amp;nbsp; &amp;nbsp; &amp;nbsp; &amp;nbsp; &amp;nbsp; &amp;nbsp; &amp;nbsp; &amp;nbsp; &amp;nbsp; &amp;nbsp; &amp;nbsp; &amp;nbsp; &amp;nbsp; &amp;nbsp; &amp;nbsp; &amp;nbsp; &amp;nbsp; &amp;nbsp; &amp;nbsp; &amp;nbsp;&amp;nbsp;&lt;/span&gt;&lt;span style=&quot;background-color: initial;&quot;&gt;UNIQUEIDENTIFIER&amp;nbsp; &amp;nbsp; &amp;nbsp; &amp;nbsp; &amp;nbsp; &amp;nbsp; &amp;nbsp; &amp;nbsp;PK&lt;/span&gt;&lt;/div&gt;" style="text;strokeColor=none;fillColor=none;spacingLeft=4;spacingRight=4;overflow=hidden;rotatable=0;points=[[0,0.5],[1,0.5]];portConstraint=eastwest;fontSize=12;whiteSpace=wrap;html=1;align=left;" vertex="1" parent="ZNygfHk2cqa3fx--3s6A-39">
          <mxGeometry y="26" width="340" height="30" as="geometry" />
        </mxCell>
        <mxCell id="ZNygfHk2cqa3fx--3s6A-41" value="IS_RESTRICTED&amp;nbsp; &amp;nbsp; &amp;nbsp; &amp;nbsp; &amp;nbsp; &amp;nbsp; &amp;nbsp; &amp;nbsp;BIT" style="text;strokeColor=none;fillColor=none;spacingLeft=4;spacingRight=4;overflow=hidden;rotatable=0;points=[[0,0.5],[1,0.5]];portConstraint=eastwest;fontSize=12;whiteSpace=wrap;html=1;" vertex="1" parent="ZNygfHk2cqa3fx--3s6A-39">
          <mxGeometry y="56" width="340" height="30" as="geometry" />
        </mxCell>
        <mxCell id="ZNygfHk2cqa3fx--3s6A-42" value="BACKGROUND_MODE&amp;nbsp; &amp;nbsp; &amp;nbsp;VARCHAR(15)" style="text;strokeColor=none;fillColor=none;spacingLeft=4;spacingRight=4;overflow=hidden;rotatable=0;points=[[0,0.5],[1,0.5]];portConstraint=eastwest;fontSize=12;whiteSpace=wrap;html=1;" vertex="1" parent="ZNygfHk2cqa3fx--3s6A-39">
          <mxGeometry y="86" width="340" height="30" as="geometry" />
        </mxCell>
        <mxCell id="ZNygfHk2cqa3fx--3s6A-43" value="USER_ID&amp;nbsp; &amp;nbsp; &amp;nbsp; &amp;nbsp; &amp;nbsp; &amp;nbsp; &amp;nbsp; &amp;nbsp; &amp;nbsp; &amp;nbsp; &amp;nbsp; &amp;nbsp; &amp;nbsp; &amp;nbsp; UNIQUEIDENTIFIER&amp;nbsp; &amp;nbsp; &amp;nbsp; &amp;nbsp; &amp;nbsp; &amp;nbsp; &amp;nbsp; FK" style="text;strokeColor=none;fillColor=none;spacingLeft=4;spacingRight=4;overflow=hidden;rotatable=0;points=[[0,0.5],[1,0.5]];portConstraint=eastwest;fontSize=12;whiteSpace=wrap;html=1;" vertex="1" parent="ZNygfHk2cqa3fx--3s6A-39">
          <mxGeometry y="116" width="340" height="30" as="geometry" />
        </mxCell>
        <mxCell id="ZNygfHk2cqa3fx--3s6A-45" value="Tool" style="swimlane;fontStyle=0;childLayout=stackLayout;horizontal=1;startSize=26;horizontalStack=0;resizeParent=1;resizeParentMax=0;resizeLast=0;collapsible=1;marginBottom=0;align=center;fontSize=14;" vertex="1" parent="1">
          <mxGeometry x="2380" y="594" width="340" height="116" as="geometry" />
        </mxCell>
        <mxCell id="ZNygfHk2cqa3fx--3s6A-46" value="&lt;div style=&quot;&quot;&gt;&lt;span style=&quot;background-color: initial;&quot;&gt;ID&amp;nbsp; &amp;nbsp; &amp;nbsp; &amp;nbsp; &amp;nbsp; &amp;nbsp; &amp;nbsp; &amp;nbsp; &amp;nbsp; &amp;nbsp; &amp;nbsp; &amp;nbsp; &amp;nbsp; &amp;nbsp; &amp;nbsp; &amp;nbsp; &amp;nbsp; &amp;nbsp; &amp;nbsp; &amp;nbsp;&amp;nbsp;&lt;/span&gt;&lt;span style=&quot;background-color: initial;&quot;&gt;UNIQUEIDENTIFIER&amp;nbsp; &amp;nbsp; &amp;nbsp; &amp;nbsp; &amp;nbsp; &amp;nbsp; &amp;nbsp; &amp;nbsp;PK&lt;/span&gt;&lt;/div&gt;" style="text;strokeColor=none;fillColor=none;spacingLeft=4;spacingRight=4;overflow=hidden;rotatable=0;points=[[0,0.5],[1,0.5]];portConstraint=eastwest;fontSize=12;whiteSpace=wrap;html=1;align=left;" vertex="1" parent="ZNygfHk2cqa3fx--3s6A-45">
          <mxGeometry y="26" width="340" height="30" as="geometry" />
        </mxCell>
        <mxCell id="ZNygfHk2cqa3fx--3s6A-47" value="NAME&amp;nbsp; &amp;nbsp; &amp;nbsp; &amp;nbsp; &amp;nbsp; &amp;nbsp; &amp;nbsp; &amp;nbsp; &amp;nbsp; &amp;nbsp; &amp;nbsp; &amp;nbsp; &amp;nbsp; &amp;nbsp; &amp;nbsp; &amp;nbsp; &amp;nbsp;VARCHAR(255)" style="text;strokeColor=none;fillColor=none;spacingLeft=4;spacingRight=4;overflow=hidden;rotatable=0;points=[[0,0.5],[1,0.5]];portConstraint=eastwest;fontSize=12;whiteSpace=wrap;html=1;" vertex="1" parent="ZNygfHk2cqa3fx--3s6A-45">
          <mxGeometry y="56" width="340" height="30" as="geometry" />
        </mxCell>
        <mxCell id="ZNygfHk2cqa3fx--3s6A-48" value="SHORTCUT&amp;nbsp; &amp;nbsp; &amp;nbsp; &amp;nbsp; &amp;nbsp; &amp;nbsp; &amp;nbsp; &amp;nbsp; &amp;nbsp; &amp;nbsp; &amp;nbsp; &amp;nbsp; VARCHAR(50)" style="text;strokeColor=none;fillColor=none;spacingLeft=4;spacingRight=4;overflow=hidden;rotatable=0;points=[[0,0.5],[1,0.5]];portConstraint=eastwest;fontSize=12;whiteSpace=wrap;html=1;" vertex="1" parent="ZNygfHk2cqa3fx--3s6A-45">
          <mxGeometry y="86" width="340" height="30" as="geometry" />
        </mxCell>
        <mxCell id="ZNygfHk2cqa3fx--3s6A-50" value="Project" style="swimlane;fontStyle=0;childLayout=stackLayout;horizontal=1;startSize=26;horizontalStack=0;resizeParent=1;resizeParentMax=0;resizeLast=0;collapsible=1;marginBottom=0;align=center;fontSize=14;" vertex="1" parent="1">
          <mxGeometry x="1970" y="875" width="340" height="116" as="geometry" />
        </mxCell>
        <mxCell id="ZNygfHk2cqa3fx--3s6A-51" value="&lt;div style=&quot;&quot;&gt;&lt;span style=&quot;background-color: initial;&quot;&gt;ID&amp;nbsp; &amp;nbsp; &amp;nbsp; &amp;nbsp; &amp;nbsp; &amp;nbsp; &amp;nbsp; &amp;nbsp; &amp;nbsp; &amp;nbsp; &amp;nbsp; &amp;nbsp; &amp;nbsp; &amp;nbsp; &amp;nbsp; &amp;nbsp; &amp;nbsp; &amp;nbsp; &amp;nbsp; &amp;nbsp;&amp;nbsp;&lt;/span&gt;&lt;span style=&quot;background-color: initial;&quot;&gt;UNIQUEIDENTIFIER&amp;nbsp; &amp;nbsp; &amp;nbsp; &amp;nbsp; &amp;nbsp; &amp;nbsp; &amp;nbsp; &amp;nbsp;PK&lt;/span&gt;&lt;/div&gt;" style="text;strokeColor=none;fillColor=none;spacingLeft=4;spacingRight=4;overflow=hidden;rotatable=0;points=[[0,0.5],[1,0.5]];portConstraint=eastwest;fontSize=12;whiteSpace=wrap;html=1;align=left;" vertex="1" parent="ZNygfHk2cqa3fx--3s6A-50">
          <mxGeometry y="26" width="340" height="30" as="geometry" />
        </mxCell>
        <mxCell id="ZNygfHk2cqa3fx--3s6A-52" value="NAME&amp;nbsp; &amp;nbsp; &amp;nbsp; &amp;nbsp; &amp;nbsp; &amp;nbsp; &amp;nbsp; &amp;nbsp; &amp;nbsp; &amp;nbsp; &amp;nbsp; &amp;nbsp; &amp;nbsp; &amp;nbsp; &amp;nbsp; &amp;nbsp; &amp;nbsp;VARCHAR(255)" style="text;strokeColor=none;fillColor=none;spacingLeft=4;spacingRight=4;overflow=hidden;rotatable=0;points=[[0,0.5],[1,0.5]];portConstraint=eastwest;fontSize=12;whiteSpace=wrap;html=1;" vertex="1" parent="ZNygfHk2cqa3fx--3s6A-50">
          <mxGeometry y="56" width="340" height="30" as="geometry" />
        </mxCell>
        <mxCell id="ZNygfHk2cqa3fx--3s6A-53" value="WORKSPACE_ID&amp;nbsp; &amp;nbsp; &amp;nbsp; &amp;nbsp; &amp;nbsp; &amp;nbsp; &amp;nbsp; UNIQUEIDENTIFIER&amp;nbsp; &amp;nbsp; &amp;nbsp; &amp;nbsp; &amp;nbsp; &amp;nbsp; &amp;nbsp; &amp;nbsp; FK" style="text;strokeColor=none;fillColor=none;spacingLeft=4;spacingRight=4;overflow=hidden;rotatable=0;points=[[0,0.5],[1,0.5]];portConstraint=eastwest;fontSize=12;whiteSpace=wrap;html=1;" vertex="1" parent="ZNygfHk2cqa3fx--3s6A-50">
          <mxGeometry y="86" width="340" height="30" as="geometry" />
        </mxCell>
        <mxCell id="ZNygfHk2cqa3fx--3s6A-54" value="File" style="swimlane;fontStyle=0;childLayout=stackLayout;horizontal=1;startSize=26;horizontalStack=0;resizeParent=1;resizeParentMax=0;resizeLast=0;collapsible=1;marginBottom=0;align=center;fontSize=14;" vertex="1" parent="1">
          <mxGeometry x="1550" y="817" width="340" height="266" as="geometry" />
        </mxCell>
        <mxCell id="ZNygfHk2cqa3fx--3s6A-55" value="&lt;div style=&quot;&quot;&gt;&lt;span style=&quot;background-color: initial;&quot;&gt;ID&amp;nbsp; &amp;nbsp; &amp;nbsp; &amp;nbsp; &amp;nbsp; &amp;nbsp; &amp;nbsp; &amp;nbsp; &amp;nbsp; &amp;nbsp; &amp;nbsp; &amp;nbsp; &amp;nbsp; &amp;nbsp; &amp;nbsp; &amp;nbsp; &amp;nbsp; &amp;nbsp; &amp;nbsp; &amp;nbsp;&amp;nbsp;&lt;/span&gt;&lt;span style=&quot;background-color: initial;&quot;&gt;UNIQUEIDENTIFIER&amp;nbsp; &amp;nbsp; &amp;nbsp; &amp;nbsp; &amp;nbsp; &amp;nbsp; &amp;nbsp; &amp;nbsp;PK&lt;/span&gt;&lt;/div&gt;" style="text;strokeColor=none;fillColor=none;spacingLeft=4;spacingRight=4;overflow=hidden;rotatable=0;points=[[0,0.5],[1,0.5]];portConstraint=eastwest;fontSize=12;whiteSpace=wrap;html=1;align=left;" vertex="1" parent="ZNygfHk2cqa3fx--3s6A-54">
          <mxGeometry y="26" width="340" height="30" as="geometry" />
        </mxCell>
        <mxCell id="ZNygfHk2cqa3fx--3s6A-56" value="NAME&amp;nbsp; &amp;nbsp; &amp;nbsp; &amp;nbsp; &amp;nbsp; &amp;nbsp; &amp;nbsp; &amp;nbsp; &amp;nbsp; &amp;nbsp; &amp;nbsp; &amp;nbsp; &amp;nbsp; &amp;nbsp; &amp;nbsp; &amp;nbsp; &amp;nbsp;VARCHAR(255)" style="text;strokeColor=none;fillColor=none;spacingLeft=4;spacingRight=4;overflow=hidden;rotatable=0;points=[[0,0.5],[1,0.5]];portConstraint=eastwest;fontSize=12;whiteSpace=wrap;html=1;" vertex="1" parent="ZNygfHk2cqa3fx--3s6A-54">
          <mxGeometry y="56" width="340" height="30" as="geometry" />
        </mxCell>
        <mxCell id="ZNygfHk2cqa3fx--3s6A-58" value="MODIFIED_ON&amp;nbsp; &amp;nbsp; &amp;nbsp; &amp;nbsp; &amp;nbsp; &amp;nbsp; &amp;nbsp; &amp;nbsp; &amp;nbsp; DATETIME&amp;nbsp; &amp;nbsp; &amp;nbsp; &amp;nbsp; &amp;nbsp; &amp;nbsp; &amp;nbsp; &amp;nbsp;&amp;nbsp;" style="text;strokeColor=none;fillColor=none;spacingLeft=4;spacingRight=4;overflow=hidden;rotatable=0;points=[[0,0.5],[1,0.5]];portConstraint=eastwest;fontSize=12;whiteSpace=wrap;html=1;" vertex="1" parent="ZNygfHk2cqa3fx--3s6A-54">
          <mxGeometry y="86" width="340" height="30" as="geometry" />
        </mxCell>
        <mxCell id="ZNygfHk2cqa3fx--3s6A-57" value="CREATED_ON&amp;nbsp; &amp;nbsp; &amp;nbsp; &amp;nbsp; &amp;nbsp; &amp;nbsp; &amp;nbsp; &amp;nbsp; &amp;nbsp; &amp;nbsp;DATETIME&amp;nbsp; &amp;nbsp; &amp;nbsp; &amp;nbsp; &amp;nbsp; &amp;nbsp; &amp;nbsp; &amp;nbsp;&amp;nbsp;" style="text;strokeColor=none;fillColor=none;spacingLeft=4;spacingRight=4;overflow=hidden;rotatable=0;points=[[0,0.5],[1,0.5]];portConstraint=eastwest;fontSize=12;whiteSpace=wrap;html=1;" vertex="1" parent="ZNygfHk2cqa3fx--3s6A-54">
          <mxGeometry y="116" width="340" height="30" as="geometry" />
        </mxCell>
        <mxCell id="ZNygfHk2cqa3fx--3s6A-59" value="LOCATION&amp;nbsp; &amp;nbsp; &amp;nbsp; &amp;nbsp; &amp;nbsp; &amp;nbsp; &amp;nbsp; &amp;nbsp; &amp;nbsp; &amp;nbsp; &amp;nbsp; &amp;nbsp; &amp;nbsp;VARCHAR(MAX)&amp;nbsp; &amp;nbsp; &amp;nbsp; &amp;nbsp; &amp;nbsp; &amp;nbsp; &amp;nbsp; &amp;nbsp;&amp;nbsp;" style="text;strokeColor=none;fillColor=none;spacingLeft=4;spacingRight=4;overflow=hidden;rotatable=0;points=[[0,0.5],[1,0.5]];portConstraint=eastwest;fontSize=12;whiteSpace=wrap;html=1;" vertex="1" parent="ZNygfHk2cqa3fx--3s6A-54">
          <mxGeometry y="146" width="340" height="30" as="geometry" />
        </mxCell>
        <mxCell id="ZNygfHk2cqa3fx--3s6A-60" value="SIZE_MB&amp;nbsp; &amp;nbsp; &amp;nbsp; &amp;nbsp; &amp;nbsp; &amp;nbsp; &amp;nbsp; &amp;nbsp; &amp;nbsp; &amp;nbsp; &amp;nbsp; &amp;nbsp; &amp;nbsp; &amp;nbsp;DECIMAL(4,2)&amp;nbsp; &amp;nbsp; &amp;nbsp; &amp;nbsp; &amp;nbsp; &amp;nbsp; &amp;nbsp; &amp;nbsp;" style="text;strokeColor=none;fillColor=none;spacingLeft=4;spacingRight=4;overflow=hidden;rotatable=0;points=[[0,0.5],[1,0.5]];portConstraint=eastwest;fontSize=12;whiteSpace=wrap;html=1;" vertex="1" parent="ZNygfHk2cqa3fx--3s6A-54">
          <mxGeometry y="176" width="340" height="30" as="geometry" />
        </mxCell>
        <mxCell id="ZNygfHk2cqa3fx--3s6A-61" value="FILE_EXTENSION_ID&amp;nbsp; &amp;nbsp; &amp;nbsp; UNIQUEIDENTIFIER&amp;nbsp; &amp;nbsp; &amp;nbsp; &amp;nbsp; &amp;nbsp; &amp;nbsp; &amp;nbsp; &amp;nbsp; &amp;nbsp;FK" style="text;strokeColor=none;fillColor=none;spacingLeft=4;spacingRight=4;overflow=hidden;rotatable=0;points=[[0,0.5],[1,0.5]];portConstraint=eastwest;fontSize=12;whiteSpace=wrap;html=1;" vertex="1" parent="ZNygfHk2cqa3fx--3s6A-54">
          <mxGeometry y="206" width="340" height="30" as="geometry" />
        </mxCell>
        <mxCell id="ZNygfHk2cqa3fx--3s6A-62" value="PROJECT_ID&amp;nbsp; &amp;nbsp; &amp;nbsp; &amp;nbsp; &amp;nbsp; &amp;nbsp; &amp;nbsp; &amp;nbsp; &amp;nbsp; &amp;nbsp; UNIQUEIDENTIFIER&amp;nbsp; &amp;nbsp; &amp;nbsp; &amp;nbsp; &amp;nbsp; &amp;nbsp; &amp;nbsp; &amp;nbsp; &amp;nbsp;FK" style="text;strokeColor=none;fillColor=none;spacingLeft=4;spacingRight=4;overflow=hidden;rotatable=0;points=[[0,0.5],[1,0.5]];portConstraint=eastwest;fontSize=12;whiteSpace=wrap;html=1;" vertex="1" parent="ZNygfHk2cqa3fx--3s6A-54">
          <mxGeometry y="236" width="340" height="30" as="geometry" />
        </mxCell>
        <mxCell id="ZNygfHk2cqa3fx--3s6A-63" value="" style="edgeStyle=entityRelationEdgeStyle;fontSize=12;html=1;endArrow=ERoneToMany;startArrow=ERzeroToMany;rounded=0;entryX=0;entryY=0.5;entryDx=0;entryDy=0;exitX=1.012;exitY=0.071;exitDx=0;exitDy=0;exitPerimeter=0;" edge="1" parent="1" source="ZNygfHk2cqa3fx--3s6A-16" target="ZNygfHk2cqa3fx--3s6A-22">
          <mxGeometry width="100" height="100" relative="1" as="geometry">
            <mxPoint x="1840" y="331.28999999999996" as="sourcePoint" />
            <mxPoint x="2000" y="331.28999999999996" as="targetPoint" />
          </mxGeometry>
        </mxCell>
        <mxCell id="ZNygfHk2cqa3fx--3s6A-65" value="" style="edgeStyle=entityRelationEdgeStyle;fontSize=12;html=1;endArrow=ERoneToMany;startArrow=ERzeroToOne;rounded=0;entryX=1;entryY=0.5;entryDx=0;entryDy=0;exitX=-0.004;exitY=0.095;exitDx=0;exitDy=0;exitPerimeter=0;" edge="1" parent="1" source="ZNygfHk2cqa3fx--3s6A-37" target="ZNygfHk2cqa3fx--3s6A-22">
          <mxGeometry width="100" height="100" relative="1" as="geometry">
            <mxPoint x="2503" y="340" as="sourcePoint" />
            <mxPoint x="2410" y="340" as="targetPoint" />
          </mxGeometry>
        </mxCell>
        <mxCell id="16yrcvZxFUf8P6aVs9JN-107" value="" style="edgeStyle=entityRelationEdgeStyle;fontSize=12;html=1;endArrow=ERoneToMany;startArrow=ERzeroToMany;rounded=0;entryX=1;entryY=0.5;entryDx=0;entryDy=0;exitX=0;exitY=0.5;exitDx=0;exitDy=0;" parent="1" source="ZNygfHk2cqa3fx--3s6A-47" target="ZNygfHk2cqa3fx--3s6A-41" edge="1">
          <mxGeometry width="100" height="100" relative="1" as="geometry">
            <mxPoint x="2420" y="651.29" as="sourcePoint" />
            <mxPoint x="2340" y="651.29" as="targetPoint" />
          </mxGeometry>
        </mxCell>
        <mxCell id="ZNygfHk2cqa3fx--3s6A-66" value="File extension" style="swimlane;fontStyle=0;childLayout=stackLayout;horizontal=1;startSize=26;horizontalStack=0;resizeParent=1;resizeParentMax=0;resizeLast=0;collapsible=1;marginBottom=0;align=center;fontSize=14;" vertex="1" parent="1">
          <mxGeometry x="1080" y="860" width="340" height="146" as="geometry" />
        </mxCell>
        <mxCell id="ZNygfHk2cqa3fx--3s6A-67" value="&lt;div style=&quot;&quot;&gt;&lt;span style=&quot;background-color: initial;&quot;&gt;ID&amp;nbsp; &amp;nbsp; &amp;nbsp; &amp;nbsp; &amp;nbsp; &amp;nbsp; &amp;nbsp; &amp;nbsp; &amp;nbsp; &amp;nbsp; &amp;nbsp; &amp;nbsp; &amp;nbsp; &amp;nbsp; &amp;nbsp; &amp;nbsp; &amp;nbsp; &amp;nbsp; &amp;nbsp; &amp;nbsp; &amp;nbsp; &amp;nbsp; &amp;nbsp; &amp;nbsp; &amp;nbsp;&amp;nbsp;&lt;/span&gt;&lt;span style=&quot;background-color: initial;&quot;&gt;UNIQUEIDENTIFIER&amp;nbsp; &amp;nbsp; &amp;nbsp; PK&lt;/span&gt;&lt;/div&gt;" style="text;strokeColor=none;fillColor=none;spacingLeft=4;spacingRight=4;overflow=hidden;rotatable=0;points=[[0,0.5],[1,0.5]];portConstraint=eastwest;fontSize=12;whiteSpace=wrap;html=1;align=left;" vertex="1" parent="ZNygfHk2cqa3fx--3s6A-66">
          <mxGeometry y="26" width="340" height="30" as="geometry" />
        </mxCell>
        <mxCell id="ZNygfHk2cqa3fx--3s6A-68" value="EXTENSION_NAME&amp;nbsp; &amp;nbsp; &amp;nbsp; &amp;nbsp; &amp;nbsp; &amp;nbsp; &amp;nbsp; &amp;nbsp; &amp;nbsp; &amp;nbsp; VARCHAR(255)" style="text;strokeColor=none;fillColor=none;spacingLeft=4;spacingRight=4;overflow=hidden;rotatable=0;points=[[0,0.5],[1,0.5]];portConstraint=eastwest;fontSize=12;whiteSpace=wrap;html=1;" vertex="1" parent="ZNygfHk2cqa3fx--3s6A-66">
          <mxGeometry y="56" width="340" height="30" as="geometry" />
        </mxCell>
        <mxCell id="ZNygfHk2cqa3fx--3s6A-69" value="EXTENSION_ABBREVIATION&amp;nbsp; &amp;nbsp; VARCHAR(10)" style="text;strokeColor=none;fillColor=none;spacingLeft=4;spacingRight=4;overflow=hidden;rotatable=0;points=[[0,0.5],[1,0.5]];portConstraint=eastwest;fontSize=12;whiteSpace=wrap;html=1;" vertex="1" parent="ZNygfHk2cqa3fx--3s6A-66">
          <mxGeometry y="86" width="340" height="30" as="geometry" />
        </mxCell>
        <mxCell id="ZNygfHk2cqa3fx--3s6A-70" value="ICON&amp;nbsp; &amp;nbsp; &amp;nbsp; &amp;nbsp; &amp;nbsp; &amp;nbsp; &amp;nbsp; &amp;nbsp; &amp;nbsp; &amp;nbsp; &amp;nbsp; &amp;nbsp; &amp;nbsp; &amp;nbsp; &amp;nbsp; &amp;nbsp; &amp;nbsp; &amp;nbsp; &amp;nbsp; &amp;nbsp; &amp;nbsp; &amp;nbsp; BINARY" style="text;strokeColor=none;fillColor=none;spacingLeft=4;spacingRight=4;overflow=hidden;rotatable=0;points=[[0,0.5],[1,0.5]];portConstraint=eastwest;fontSize=12;whiteSpace=wrap;html=1;" vertex="1" parent="ZNygfHk2cqa3fx--3s6A-66">
          <mxGeometry y="116" width="340" height="30" as="geometry" />
        </mxCell>
      </root>
    </mxGraphModel>
  </diagram>
</mxfile>
